# xmcd
#
# Track frame offsets:
#  150
#  31151
#  59047
#  80854
#  102388
#  123633
#  148025
#  165123
#  182088
#  209855
#  233411
#
# Disc length: 3259 seconds
#
# Revision: 0
# Processed by: cddbd v1.4PL0 Copyright (c) Steve Scherf et al.
# Submitted via: AltoMP3_Maker 3.0
#
DISCID=9d0cb90b
DTITLE=Joe Juliano - Fightin' The Blues
DYEAR=1900
DGENRE=
TTITLE0=Play The Blues
TTITLE1=Fightin' The Blues
TTITLE2=Epidemic Of The Blues
TTITLE3=Lock On My Heart
TTITLE4=12 Bar Blues
TTITLE5=When Something Is Wrong WIth My Baby
TTITLE6=Paper Boy Blues
TTITLE7=Leave Me Alone
TTITLE8=Answer My Ad
TTITLE9=You're So Cold
TTITLE10=Cappuccino
EXTD=
EXTT0=
EXTT1=
EXTT2=
EXTT3=
EXTT4=
EXTT5=
EXTT6=
EXTT7=
EXTT8=
EXTT9=
EXTT10=
PLAYORDER=
